<svg id="Layer_1" data-name="Layer 1" xmlns="http://www.w3.org/2000/svg" xmlns:xlink="http://www.w3.org/1999/xlink" viewBox="0 0 81.07 100.26"><defs><style>.cls-1{fill:none;stroke:#9d9fa2;stroke-miterlimit:10;stroke-width:0.75px;}.cls-2{clip-path:url(#clip-path);}.cls-3{fill:#99a3af;}</style><clipPath id="clip-path" transform="translate(13.64 -0.32)"><circle class="cls-1" cx="29.5" cy="27.84" r="26.44"/></clipPath></defs><g class="cls-2"><image width="2592" height="3062" transform="scale(0.03 0.03)" xlink:href="images/logo/banner-02.jpg"/></g><circle class="cls-1" cx="43.14" cy="27.52" r="26.44"/><path class="cls-3" d="M5.78,61.52H7.45V74.65H5.78Z" transform="translate(13.64 -0.32)"/><path class="cls-3" d="M11,61.52h1.73l4.75,8.26,1.42,2.72H19c-.09-1.33-.22-2.81-.22-4.18v-6.8h1.59V74.65H18.67l-4.76-8.26L12.5,63.68h-.08c.08,1.33.21,2.73.21,4.1v6.87H11Z" transform="translate(13.64 -0.32)"/><path class="cls-3" d="M28,61.52h3.9c2.67,0,4.52.91,4.52,3.22a2.87,2.87,0,0,1-1.92,2.85v.08a3,3,0,0,1,2.67,3.14c0,2.58-2,3.84-5,3.84H28Zm3.62,5.59c2.23,0,3.15-.82,3.15-2.15,0-1.54-1-2.11-3.08-2.11h-2v4.26Zm.34,6.22c2.24,0,3.57-.81,3.57-2.58s-1.28-2.36-3.57-2.36H29.65v4.94Z" transform="translate(13.64 -0.32)"/><path class="cls-3" d="M39.74,61.52h1.67V74.65H39.74Z" transform="translate(13.64 -0.32)"/><path class="cls-3" d="M44.24,68c0-4.21,2.31-6.76,5.61-6.76s5.61,2.56,5.61,6.76-2.31,6.85-5.61,6.85S44.24,72.25,44.24,68Zm9.5,0c0-3.27-1.54-5.29-3.89-5.29S46,64.77,46,68s1.54,5.38,3.88,5.38S53.74,71.31,53.74,68Z" transform="translate(13.64 -0.32)"/></svg>